<svg width="294" height="130" viewBox="0 0 294 130" fill="none" xmlns="http://www.w3.org/2000/svg">
<g filter="url(#filter0_d_337_829)">
<rect x="35" y="15" width="224" height="60" rx="10" fill="#F1A501"/>
</g>
<path d="M112.282 53H110.527V41.48H104.083V53H102.337V40.103H112.282V53ZM118.757 43.739C119.423 43.739 120.023 43.85 120.557 44.072C121.091 44.294 121.547 44.609 121.925 45.017C122.303 45.425 122.591 45.92 122.789 46.502C122.993 47.078 123.095 47.723 123.095 48.437C123.095 49.157 122.993 49.805 122.789 50.381C122.591 50.957 122.303 51.449 121.925 51.857C121.547 52.265 121.091 52.58 120.557 52.802C120.023 53.018 119.423 53.126 118.757 53.126C118.085 53.126 117.479 53.018 116.939 52.802C116.405 52.58 115.949 52.265 115.571 51.857C115.193 51.449 114.902 50.957 114.698 50.381C114.5 49.805 114.401 49.157 114.401 48.437C114.401 47.723 114.5 47.078 114.698 46.502C114.902 45.92 115.193 45.425 115.571 45.017C115.949 44.609 116.405 44.294 116.939 44.072C117.479 43.85 118.085 43.739 118.757 43.739ZM118.757 51.875C119.657 51.875 120.329 51.575 120.773 50.975C121.217 50.369 121.439 49.526 121.439 48.446C121.439 47.36 121.217 46.514 120.773 45.908C120.329 45.302 119.657 44.999 118.757 44.999C118.301 44.999 117.902 45.077 117.56 45.233C117.224 45.389 116.942 45.614 116.714 45.908C116.492 46.202 116.324 46.565 116.21 46.997C116.102 47.423 116.048 47.906 116.048 48.446C116.048 49.526 116.27 50.369 116.714 50.975C117.164 51.575 117.845 51.875 118.757 51.875ZM131.075 51.83V45.143H128.186C128.126 46.079 128.042 46.907 127.934 47.627C127.826 48.347 127.7 48.98 127.556 49.526C127.418 50.066 127.262 50.525 127.088 50.903C126.92 51.281 126.743 51.59 126.557 51.83H131.075ZM134.297 51.785V55.646C134.297 55.802 134.252 55.922 134.162 56.006C134.078 56.096 133.967 56.141 133.829 56.141H132.848V53H125.18V55.682C125.18 55.796 125.144 55.901 125.072 55.997C125.006 56.093 124.895 56.141 124.739 56.141H123.731V51.83H124.028C124.238 51.83 124.445 51.794 124.649 51.722C124.859 51.65 125.06 51.515 125.252 51.317C125.444 51.113 125.624 50.828 125.792 50.462C125.966 50.096 126.122 49.619 126.26 49.031C126.398 48.443 126.518 47.729 126.62 46.889C126.722 46.043 126.803 45.041 126.863 43.883H132.632V51.785H134.297ZM137.531 50.804C137.825 51.2 138.146 51.479 138.494 51.641C138.842 51.803 139.232 51.884 139.664 51.884C140.516 51.884 141.17 51.581 141.626 50.975C142.082 50.369 142.31 49.505 142.31 48.383C142.31 47.789 142.256 47.279 142.148 46.853C142.046 46.427 141.896 46.079 141.698 45.809C141.5 45.533 141.257 45.332 140.969 45.206C140.681 45.08 140.354 45.017 139.988 45.017C139.466 45.017 139.007 45.137 138.611 45.377C138.221 45.617 137.861 45.956 137.531 46.394V50.804ZM137.45 45.296C137.834 44.822 138.278 44.441 138.782 44.153C139.286 43.865 139.862 43.721 140.51 43.721C141.038 43.721 141.515 43.823 141.941 44.027C142.367 44.225 142.73 44.522 143.03 44.918C143.33 45.308 143.561 45.794 143.723 46.376C143.885 46.958 143.966 47.627 143.966 48.383C143.966 49.055 143.876 49.682 143.696 50.264C143.516 50.84 143.255 51.341 142.913 51.767C142.577 52.187 142.163 52.52 141.671 52.766C141.185 53.006 140.636 53.126 140.024 53.126C139.466 53.126 138.986 53.033 138.584 52.847C138.188 52.655 137.837 52.391 137.531 52.055V56.087H135.92V43.883H136.883C137.111 43.883 137.252 43.994 137.306 44.216L137.45 45.296ZM149.835 43.739C150.501 43.739 151.101 43.85 151.635 44.072C152.169 44.294 152.625 44.609 153.003 45.017C153.381 45.425 153.669 45.92 153.867 46.502C154.071 47.078 154.173 47.723 154.173 48.437C154.173 49.157 154.071 49.805 153.867 50.381C153.669 50.957 153.381 51.449 153.003 51.857C152.625 52.265 152.169 52.58 151.635 52.802C151.101 53.018 150.501 53.126 149.835 53.126C149.163 53.126 148.557 53.018 148.017 52.802C147.483 52.58 147.027 52.265 146.649 51.857C146.271 51.449 145.98 50.957 145.776 50.381C145.578 49.805 145.479 49.157 145.479 48.437C145.479 47.723 145.578 47.078 145.776 46.502C145.98 45.92 146.271 45.425 146.649 45.017C147.027 44.609 147.483 44.294 148.017 44.072C148.557 43.85 149.163 43.739 149.835 43.739ZM149.835 51.875C150.735 51.875 151.407 51.575 151.851 50.975C152.295 50.369 152.517 49.526 152.517 48.446C152.517 47.36 152.295 46.514 151.851 45.908C151.407 45.302 150.735 44.999 149.835 44.999C149.379 44.999 148.98 45.077 148.638 45.233C148.302 45.389 148.02 45.614 147.792 45.908C147.57 46.202 147.402 46.565 147.288 46.997C147.18 47.423 147.126 47.906 147.126 48.446C147.126 49.526 147.348 50.369 147.792 50.975C148.242 51.575 148.923 51.875 149.835 51.875ZM160.318 51.938C161.218 51.938 161.896 51.653 162.352 51.083C162.814 50.507 163.045 49.703 163.045 48.671C163.045 47.645 162.823 46.844 162.379 46.268C161.941 45.692 161.281 45.404 160.399 45.404C159.973 45.404 159.589 45.473 159.247 45.611C158.905 45.743 158.614 45.938 158.374 46.196C158.14 46.454 157.957 46.772 157.825 47.15C157.699 47.528 157.636 47.96 157.636 48.446C157.636 48.992 157.693 49.481 157.807 49.913C157.921 50.345 158.089 50.711 158.311 51.011C158.539 51.311 158.818 51.542 159.148 51.704C159.484 51.86 159.874 51.938 160.318 51.938ZM160.939 41.741C160.327 41.795 159.802 41.93 159.364 42.146C158.932 42.362 158.572 42.656 158.284 43.028C157.996 43.394 157.78 43.835 157.636 44.351C157.492 44.867 157.408 45.449 157.384 46.097C157.528 45.809 157.714 45.551 157.942 45.323C158.17 45.089 158.431 44.891 158.725 44.729C159.019 44.561 159.337 44.435 159.679 44.351C160.027 44.261 160.396 44.216 160.786 44.216C161.392 44.216 161.935 44.324 162.415 44.54C162.901 44.75 163.312 45.05 163.648 45.44C163.99 45.83 164.251 46.301 164.431 46.853C164.611 47.399 164.701 48.005 164.701 48.671C164.701 49.349 164.596 49.964 164.386 50.516C164.182 51.062 163.888 51.53 163.504 51.92C163.12 52.304 162.658 52.601 162.118 52.811C161.584 53.021 160.984 53.126 160.318 53.126C159.706 53.126 159.133 53.024 158.599 52.82C158.065 52.616 157.603 52.28 157.213 51.812C156.823 51.344 156.514 50.729 156.286 49.967C156.064 49.199 155.953 48.254 155.953 47.132C155.953 46.172 156.04 45.29 156.214 44.486C156.388 43.682 156.667 42.983 157.051 42.389C157.441 41.795 157.942 41.318 158.554 40.958C159.172 40.592 159.922 40.37 160.804 40.292L164.062 40.013L164.152 40.841C164.17 41.027 164.143 41.183 164.071 41.309C163.999 41.435 163.87 41.504 163.684 41.516L160.939 41.741ZM174.33 43.883V53H172.719V48.734H168.345V53H166.734V43.883H168.345V47.519H172.719V43.883H174.33ZM182.979 47.447C182.979 47.075 182.925 46.736 182.817 46.43C182.715 46.118 182.562 45.851 182.358 45.629C182.16 45.401 181.917 45.227 181.629 45.107C181.341 44.981 181.014 44.918 180.648 44.918C179.88 44.918 179.271 45.143 178.821 45.593C178.377 46.037 178.101 46.655 177.993 47.447H182.979ZM184.275 51.722C184.077 51.962 183.84 52.172 183.564 52.352C183.288 52.526 182.991 52.67 182.673 52.784C182.361 52.898 182.037 52.982 181.701 53.036C181.365 53.096 181.032 53.126 180.702 53.126C180.072 53.126 179.49 53.021 178.956 52.811C178.428 52.595 177.969 52.283 177.579 51.875C177.195 51.461 176.895 50.951 176.679 50.345C176.463 49.739 176.355 49.043 176.355 48.257C176.355 47.621 176.451 47.027 176.643 46.475C176.841 45.923 177.123 45.446 177.489 45.044C177.855 44.636 178.302 44.318 178.83 44.09C179.358 43.856 179.952 43.739 180.612 43.739C181.158 43.739 181.662 43.832 182.124 44.018C182.592 44.198 182.994 44.462 183.33 44.81C183.672 45.152 183.939 45.578 184.131 46.088C184.323 46.592 184.419 47.168 184.419 47.816C184.419 48.068 184.392 48.236 184.338 48.32C184.284 48.404 184.182 48.446 184.032 48.446H177.939C177.957 49.022 178.035 49.523 178.173 49.949C178.317 50.375 178.515 50.732 178.767 51.02C179.019 51.302 179.319 51.515 179.667 51.659C180.015 51.797 180.405 51.866 180.837 51.866C181.239 51.866 181.584 51.821 181.872 51.731C182.166 51.635 182.418 51.533 182.628 51.425C182.838 51.317 183.012 51.218 183.15 51.128C183.294 51.032 183.417 50.984 183.519 50.984C183.651 50.984 183.753 51.035 183.825 51.137L184.275 51.722ZM192.489 47.447C192.489 47.075 192.435 46.736 192.327 46.43C192.225 46.118 192.072 45.851 191.868 45.629C191.67 45.401 191.427 45.227 191.139 45.107C190.851 44.981 190.524 44.918 190.158 44.918C189.39 44.918 188.781 45.143 188.331 45.593C187.887 46.037 187.611 46.655 187.503 47.447H192.489ZM193.785 51.722C193.587 51.962 193.35 52.172 193.074 52.352C192.798 52.526 192.501 52.67 192.183 52.784C191.871 52.898 191.547 52.982 191.211 53.036C190.875 53.096 190.542 53.126 190.212 53.126C189.582 53.126 189 53.021 188.466 52.811C187.938 52.595 187.479 52.283 187.089 51.875C186.705 51.461 186.405 50.951 186.189 50.345C185.973 49.739 185.865 49.043 185.865 48.257C185.865 47.621 185.961 47.027 186.153 46.475C186.351 45.923 186.633 45.446 186.999 45.044C187.365 44.636 187.812 44.318 188.34 44.09C188.868 43.856 189.462 43.739 190.122 43.739C190.668 43.739 191.172 43.832 191.634 44.018C192.102 44.198 192.504 44.462 192.84 44.81C193.182 45.152 193.449 45.578 193.641 46.088C193.833 46.592 193.929 47.168 193.929 47.816C193.929 48.068 193.902 48.236 193.848 48.32C193.794 48.404 193.692 48.446 193.542 48.446H187.449C187.467 49.022 187.545 49.523 187.683 49.949C187.827 50.375 188.025 50.732 188.277 51.02C188.529 51.302 188.829 51.515 189.177 51.659C189.525 51.797 189.915 51.866 190.347 51.866C190.749 51.866 191.094 51.821 191.382 51.731C191.676 51.635 191.928 51.533 192.138 51.425C192.348 51.317 192.522 51.218 192.66 51.128C192.804 51.032 192.927 50.984 193.029 50.984C193.161 50.984 193.263 51.035 193.335 51.137L193.785 51.722Z" fill="white"/>
<defs>
<filter id="filter0_d_337_829" x="0" y="0" width="294" height="130" filterUnits="userSpaceOnUse" color-interpolation-filters="sRGB">
<feFlood flood-opacity="0" result="BackgroundImageFix"/>
<feColorMatrix in="SourceAlpha" type="matrix" values="0 0 0 0 0 0 0 0 0 0 0 0 0 0 0 0 0 0 127 0" result="hardAlpha"/>
<feOffset dy="20"/>
<feGaussianBlur stdDeviation="17.5"/>
<feColorMatrix type="matrix" values="0 0 0 0 0.945098 0 0 0 0 0.647059 0 0 0 0 0.00392157 0 0 0 0.15 0"/>
<feBlend mode="normal" in2="BackgroundImageFix" result="effect1_dropShadow_337_829"/>
<feBlend mode="normal" in="SourceGraphic" in2="effect1_dropShadow_337_829" result="shape"/>
</filter>
</defs>
</svg>
