<svg width="51" height="52" viewBox="0 0 51 52" fill="none" xmlns="http://www.w3.org/2000/svg">
<rect y="0.631592" width="50.2982" height="51.3684" rx="13" fill="#006380"/>
<path d="M17.6579 28.5898C17.3404 28.5898 17.03 28.684 16.766 28.8604C16.5021 29.0368 16.2963 29.2875 16.1748 29.5808C16.0533 29.8741 16.0215 30.1969 16.0835 30.5083C16.1454 30.8197 16.2983 31.1057 16.5228 31.3302C16.7473 31.5547 17.0333 31.7076 17.3447 31.7695C17.6561 31.8315 17.9789 31.7997 18.2722 31.6782C18.5655 31.5567 18.8162 31.3509 18.9926 31.0869C19.169 30.823 19.2631 30.5126 19.2631 30.1951C19.2631 29.7694 19.094 29.3611 18.793 29.06C18.4919 28.759 18.0836 28.5898 17.6579 28.5898ZM17.6579 30.9977C17.4991 30.9977 17.344 30.9507 17.212 30.8625C17.08 30.7743 16.9771 30.6489 16.9163 30.5023C16.8556 30.3556 16.8397 30.1942 16.8707 30.0385C16.9016 29.8828 16.9781 29.7398 17.0903 29.6276C17.2026 29.5153 17.3456 29.4389 17.5013 29.4079C17.657 29.3769 17.8184 29.3928 17.965 29.4536C18.1117 29.5143 18.237 29.6172 18.3252 29.7492C18.4134 29.8812 18.4605 30.0364 18.4605 30.1951C18.4605 30.408 18.3759 30.6121 18.2254 30.7627C18.0749 30.9132 17.8707 30.9977 17.6579 30.9977Z" fill="white"/>
<path d="M33.7105 28.5898C33.3931 28.5898 33.0827 28.684 32.8187 28.8604C32.5547 29.0368 32.349 29.2875 32.2275 29.5808C32.106 29.8741 32.0742 30.1969 32.1361 30.5083C32.1981 30.8197 32.351 31.1057 32.5755 31.3302C32.8 31.5547 33.086 31.7076 33.3974 31.7695C33.7088 31.8315 34.0315 31.7997 34.3249 31.6782C34.6182 31.5567 34.8689 31.3509 35.0453 31.0869C35.2217 30.823 35.3158 30.5126 35.3158 30.1951C35.3158 29.7694 35.1467 29.3611 34.8456 29.06C34.5446 28.759 34.1363 28.5898 33.7105 28.5898ZM33.7105 30.9977C33.5518 30.9977 33.3966 30.9507 33.2646 30.8625C33.1326 30.7743 33.0298 30.6489 32.969 30.5023C32.9083 30.3556 32.8924 30.1942 32.9233 30.0385C32.9543 29.8828 33.0308 29.7398 33.143 29.6276C33.2552 29.5153 33.3983 29.4389 33.554 29.4079C33.7097 29.3769 33.871 29.3928 34.0177 29.4536C34.1644 29.5143 34.2897 29.6172 34.3779 29.7492C34.4661 29.8812 34.5132 30.0364 34.5132 30.1951C34.5132 30.408 34.4286 30.6121 34.2781 30.7627C34.1276 30.9132 33.9234 30.9977 33.7105 30.9977Z" fill="white"/>
<path d="M22.0724 30.5964H29.2961V31.3991H22.0724V30.5964Z" fill="white"/>
<path d="M22.0724 28.9912H29.2961V29.7938H22.0724V28.9912Z" fill="white"/>
<path d="M24.4803 22.9714H26.8882V23.7741H24.4803V22.9714Z" fill="white"/>
<path d="M37.7237 26.5833V25.7807C37.7227 25.4616 37.5956 25.156 37.37 24.9304C37.1444 24.7048 36.8387 24.5777 36.5197 24.5767H34.9305L34.0998 21.6632L33.851 20.6719C33.7857 20.4116 33.6353 20.1806 33.4237 20.0156C33.2121 19.8505 32.9515 19.7609 32.6831 19.7609H29.296V18.1557C29.2954 17.943 29.2106 17.7392 29.0602 17.5888C28.9099 17.4384 28.7061 17.3537 28.4934 17.353H22.875C22.6623 17.3537 22.4585 17.4384 22.3081 17.5888C22.1577 17.7392 22.073 17.943 22.0723 18.1557V19.7609H18.6852C18.4169 19.7609 18.1562 19.8505 17.9447 20.0156C17.7331 20.1806 17.5827 20.4116 17.5174 20.6719L17.2726 21.6591L16.4379 24.5767H14.8487C14.5296 24.5777 14.224 24.7048 13.9984 24.9304C13.7728 25.156 13.6457 25.4616 13.6447 25.7807V26.5833C13.6454 26.7866 13.6976 26.9864 13.7966 27.164C13.8956 27.3416 14.038 27.4911 14.2106 27.5986C13.8478 27.9714 13.6448 28.471 13.6447 28.9912V33.807C13.6453 33.9753 13.6813 34.1417 13.7504 34.2952C13.8196 34.4487 13.9203 34.5859 14.046 34.6979V36.2149C14.047 36.5339 14.1741 36.8396 14.3997 37.0651C14.6253 37.2907 14.931 37.4179 15.25 37.4188H18.4605C18.7795 37.4179 19.0852 37.2907 19.3108 37.0651C19.5363 36.8396 19.6635 36.5339 19.6645 36.2149V35.0109H31.7039V36.2149C31.7049 36.5339 31.832 36.8396 32.0576 37.0651C32.2832 37.2907 32.5889 37.4179 32.9079 37.4188H36.1184C36.4374 37.4179 36.7431 37.2907 36.9687 37.0651C37.1942 36.8396 37.3214 36.5339 37.3223 36.2149V34.6979C37.4481 34.5859 37.5488 34.4487 37.6179 34.2952C37.6871 34.1417 37.7231 33.9753 37.7237 33.807V28.9912C37.7236 28.471 37.5206 27.9714 37.1578 27.5986C37.3304 27.4911 37.4728 27.3416 37.5718 27.164C37.6708 26.9864 37.723 26.7866 37.7237 26.5833ZM22.875 18.1557H28.4934V19.7609H22.875V18.1557ZM18.296 20.8686C18.3175 20.7815 18.3675 20.7042 18.438 20.649C18.5086 20.5937 18.5956 20.5636 18.6852 20.5636H32.6831C32.7728 20.5636 32.8598 20.5937 32.9303 20.649C33.0009 20.7042 33.0509 20.7815 33.0724 20.8686L33.1968 21.3662H18.1716L18.296 20.8686ZM17.9589 22.1688H33.4095L34.782 26.9846H23.2402C23.1459 26.4238 22.8558 25.9145 22.4216 25.5472C21.9874 25.1799 21.4371 24.9784 20.8684 24.9784C20.2997 24.9784 19.7494 25.1799 19.3152 25.5472C18.881 25.9145 18.5909 26.4238 18.4966 26.9846H16.5864L17.9589 22.1688ZM22.4175 26.9846H19.3193C19.4069 26.6402 19.6068 26.3349 19.8873 26.1168C20.1679 25.8987 20.5131 25.7803 20.8684 25.7803C21.2237 25.7803 21.5689 25.8987 21.8495 26.1168C22.13 26.3349 22.3299 26.6402 22.4175 26.9846ZM14.4473 25.7807C14.4473 25.6742 14.4896 25.5721 14.5649 25.4969C14.6401 25.4216 14.7422 25.3793 14.8487 25.3793H16.2091L15.7516 26.9846H14.8487C14.7422 26.9846 14.6401 26.9423 14.5649 26.8671C14.4896 26.7918 14.4473 26.6897 14.4473 26.5833V25.7807ZM18.8618 36.2149C18.8618 36.3213 18.8195 36.4234 18.7443 36.4986C18.669 36.5739 18.5669 36.6162 18.4605 36.6162H15.25C15.1435 36.6162 15.0415 36.5739 14.9662 36.4986C14.8909 36.4234 14.8487 36.3213 14.8487 36.2149V35.0109H18.8618V36.2149ZM36.5197 36.2149C36.5197 36.3213 36.4774 36.4234 36.4022 36.4986C36.3269 36.5739 36.2248 36.6162 36.1184 36.6162H32.9079C32.8014 36.6162 32.6994 36.5739 32.6241 36.4986C32.5488 36.4234 32.5066 36.3213 32.5066 36.2149V35.0109H36.5197V36.2149ZM36.921 33.807C36.921 33.9134 36.8787 34.0155 36.8035 34.0907C36.7282 34.166 36.6262 34.2083 36.5197 34.2083H14.8487C14.7422 34.2083 14.6401 34.166 14.5649 34.0907C14.4896 34.0155 14.4473 33.9134 14.4473 33.807V33.4057H36.921V33.807ZM36.921 32.603H14.4473V28.9912C14.4483 28.6722 14.5754 28.3665 14.801 28.1409C15.0266 27.9153 15.3323 27.7882 15.6513 27.7872H35.7171C36.0361 27.7882 36.3418 27.9153 36.5673 28.1409C36.7929 28.3665 36.9201 28.6722 36.921 28.9912V32.603ZM36.921 26.5833C36.921 26.6897 36.8787 26.7918 36.8035 26.8671C36.7282 26.9423 36.6262 26.9846 36.5197 26.9846H35.6168L35.1593 25.3793H36.5197C36.6262 25.3793 36.7282 25.4216 36.8035 25.4969C36.8787 25.5721 36.921 25.6742 36.921 25.7807V26.5833Z" fill="white"/>
</svg>
