<svg width="51" height="52" viewBox="0 0 51 52" fill="none" xmlns="http://www.w3.org/2000/svg">
<rect width="50.2982" height="51.3684" rx="13" fill="#F0BB1F"/>
<path d="M14.4951 18.7019C14.1777 18.7019 13.918 18.4422 13.9123 18.1249V14.4952C13.9123 14.172 14.1719 13.9124 14.4951 13.9124H18.1248C18.4421 13.9124 18.7018 14.172 18.7018 14.4952V15.7589H32.6666V14.4952C32.6666 14.1778 32.9262 13.9181 33.2436 13.9124H36.8733C37.1907 13.9124 37.4503 14.172 37.4561 14.4952V18.1249C37.4561 18.4422 37.1964 18.7019 36.8733 18.7019H35.6095V32.6667H36.8733C37.1907 32.6667 37.4503 32.9263 37.4561 33.2437V36.8734C37.4561 37.1908 37.1964 37.4504 36.8733 37.4562H33.2436C32.9262 37.4562 32.6666 37.1965 32.6666 36.8734V35.6096H18.7018V36.8734C18.7018 37.1908 18.4421 37.4504 18.1248 37.4562H14.4951C14.1777 37.4562 13.918 37.1965 13.9123 36.8734V33.2437C13.9123 32.9263 14.1719 32.6667 14.4951 32.6667H15.7588V18.7019H14.4951ZM36.302 17.5478V15.0665H33.8207V17.5478H36.302ZM33.8207 36.3021H36.302V33.8208H33.8207V36.3021ZM18.7018 33.2437V34.4555H32.6666V33.2437C32.6666 32.9263 32.9262 32.6667 33.2436 32.6667H34.4554V18.7019H33.2436C32.9262 18.7019 32.6666 18.4422 32.6666 18.1249V16.913H18.7018V18.1249C18.7018 18.4422 18.4421 18.7019 18.1248 18.7019H16.9129V32.6667H18.1248C18.4421 32.6667 18.7018 32.9263 18.7018 33.2437ZM15.0664 33.8208V36.3021H17.5477V33.8208H15.0664ZM17.5477 17.5478V15.0665H15.0664V17.5478H17.5477Z" fill="white"/>
</svg>
