<svg width="251" height="68" viewBox="0 0 251 68" fill="none" xmlns="http://www.w3.org/2000/svg">
<rect width="251" height="68" rx="10" fill="url(#paint0_linear_337_663)"/>
<path d="M72.572 34.84C72.572 35.9133 72.402 36.9 72.062 37.8C71.722 38.6933 71.242 39.4633 70.622 40.11C70.002 40.7567 69.2553 41.26 68.382 41.62C67.5153 41.9733 66.5553 42.15 65.502 42.15C64.4486 42.15 63.4886 41.9733 62.622 41.62C61.7553 41.26 61.012 40.7567 60.392 40.11C59.772 39.4633 59.292 38.6933 58.952 37.8C58.612 36.9 58.442 35.9133 58.442 34.84C58.442 33.7667 58.612 32.7833 58.952 31.89C59.292 30.99 59.772 30.2167 60.392 29.57C61.012 28.9167 61.7553 28.41 62.622 28.05C63.4886 27.69 64.4486 27.51 65.502 27.51C66.5553 27.51 67.5153 27.69 68.382 28.05C69.2553 28.41 70.002 28.9167 70.622 29.57C71.242 30.2167 71.722 30.99 72.062 31.89C72.402 32.7833 72.572 33.7667 72.572 34.84ZM70.582 34.84C70.582 33.96 70.462 33.17 70.222 32.47C69.982 31.77 69.642 31.18 69.202 30.7C68.762 30.2133 68.2286 29.84 67.602 29.58C66.9753 29.32 66.2753 29.19 65.502 29.19C64.7353 29.19 64.0386 29.32 63.412 29.58C62.7853 29.84 62.2486 30.2133 61.802 30.7C61.362 31.18 61.022 31.77 60.782 32.47C60.542 33.17 60.422 33.96 60.422 34.84C60.422 35.72 60.542 36.51 60.782 37.21C61.022 37.9033 61.362 38.4933 61.802 38.98C62.2486 39.46 62.7853 39.83 63.412 40.09C64.0386 40.3433 64.7353 40.47 65.502 40.47C66.2753 40.47 66.9753 40.3433 67.602 40.09C68.2286 39.83 68.762 39.46 69.202 38.98C69.642 38.4933 69.982 37.9033 70.222 37.21C70.462 36.51 70.582 35.72 70.582 34.84ZM81.8409 33.67C81.7875 33.7433 81.7342 33.8 81.6809 33.84C81.6275 33.88 81.5542 33.9 81.4609 33.9C81.3609 33.9 81.2509 33.86 81.1309 33.78C81.0109 33.6933 80.8609 33.6 80.6809 33.5C80.5075 33.4 80.2909 33.31 80.0309 33.23C79.7775 33.1433 79.4642 33.1 79.0909 33.1C78.5909 33.1 78.1509 33.19 77.7709 33.37C77.3909 33.5433 77.0709 33.7967 76.8109 34.13C76.5575 34.4633 76.3642 34.8667 76.2309 35.34C76.1042 35.8133 76.0409 36.3433 76.0409 36.93C76.0409 37.5433 76.1109 38.09 76.2509 38.57C76.3909 39.0433 76.5875 39.4433 76.8409 39.77C77.1009 40.09 77.4109 40.3367 77.7709 40.51C78.1375 40.6767 78.5475 40.76 79.0009 40.76C79.4342 40.76 79.7909 40.71 80.0709 40.61C80.3509 40.5033 80.5809 40.3867 80.7609 40.26C80.9475 40.1333 81.1009 40.02 81.2209 39.92C81.3475 39.8133 81.4709 39.76 81.5909 39.76C81.7375 39.76 81.8509 39.8167 81.9309 39.93L82.4309 40.58C82.2109 40.8533 81.9609 41.0867 81.6809 41.28C81.4009 41.4733 81.0975 41.6367 80.7709 41.77C80.4509 41.8967 80.1142 41.99 79.7609 42.05C79.4075 42.11 79.0475 42.14 78.6809 42.14C78.0475 42.14 77.4575 42.0233 76.9109 41.79C76.3709 41.5567 75.9009 41.22 75.5009 40.78C75.1009 40.3333 74.7875 39.7867 74.5609 39.14C74.3342 38.4933 74.2209 37.7567 74.2209 36.93C74.2209 36.1767 74.3242 35.48 74.5309 34.84C74.7442 34.2 75.0509 33.65 75.4509 33.19C75.8575 32.7233 76.3542 32.36 76.9409 32.1C77.5342 31.84 78.2142 31.71 78.9809 31.71C79.6942 31.71 80.3209 31.8267 80.8609 32.06C81.4075 32.2867 81.8909 32.61 82.3109 33.03L81.8409 33.67ZM92.7616 33.23H88.8716V42H87.0916V33.23H83.2016V31.87H92.7616V33.23ZM99.8512 37.44C99.0312 37.4667 98.3312 37.5333 97.7512 37.64C97.1778 37.74 96.7078 37.8733 96.3412 38.04C95.9812 38.2067 95.7178 38.4033 95.5512 38.63C95.3912 38.8567 95.3112 39.11 95.3112 39.39C95.3112 39.6567 95.3545 39.8867 95.4412 40.08C95.5278 40.2733 95.6445 40.4333 95.7912 40.56C95.9445 40.68 96.1212 40.77 96.3212 40.83C96.5278 40.8833 96.7478 40.91 96.9812 40.91C97.2945 40.91 97.5812 40.88 97.8412 40.82C98.1012 40.7533 98.3445 40.66 98.5712 40.54C98.8045 40.42 99.0245 40.2767 99.2312 40.11C99.4445 39.9433 99.6512 39.7533 99.8512 39.54V37.44ZM94.1012 33.3C94.6612 32.76 95.2645 32.3567 95.9112 32.09C96.5578 31.8233 97.2745 31.69 98.0612 31.69C98.6278 31.69 99.1312 31.7833 99.5712 31.97C100.011 32.1567 100.381 32.4167 100.681 32.75C100.981 33.0833 101.208 33.4867 101.361 33.96C101.515 34.4333 101.591 34.9533 101.591 35.52V42H100.801C100.628 42 100.495 41.9733 100.401 41.92C100.308 41.86 100.235 41.7467 100.181 41.58L99.9812 40.62C99.7145 40.8667 99.4545 41.0867 99.2012 41.28C98.9478 41.4667 98.6812 41.6267 98.4012 41.76C98.1212 41.8867 97.8212 41.9833 97.5012 42.05C97.1878 42.1233 96.8378 42.16 96.4512 42.16C96.0578 42.16 95.6878 42.1067 95.3412 42C94.9945 41.8867 94.6912 41.72 94.4312 41.5C94.1778 41.28 93.9745 41.0033 93.8212 40.67C93.6745 40.33 93.6012 39.93 93.6012 39.47C93.6012 39.07 93.7112 38.6867 93.9312 38.32C94.1512 37.9467 94.5078 37.6167 95.0012 37.33C95.4945 37.0433 96.1378 36.81 96.9312 36.63C97.7245 36.4433 98.6978 36.3367 99.8512 36.31V35.52C99.8512 34.7333 99.6812 34.14 99.3412 33.74C99.0012 33.3333 98.5045 33.13 97.8512 33.13C97.4112 33.13 97.0412 33.1867 96.7412 33.3C96.4478 33.4067 96.1912 33.53 95.9712 33.67C95.7578 33.8033 95.5712 33.9267 95.4112 34.04C95.2578 34.1467 95.1045 34.2 94.9512 34.2C94.8312 34.2 94.7278 34.17 94.6412 34.11C94.5545 34.0433 94.4812 33.9633 94.4212 33.87L94.1012 33.3ZM108.193 40.75C108.859 40.75 109.386 40.5967 109.773 40.29C110.159 39.9767 110.353 39.55 110.353 39.01C110.353 38.77 110.316 38.5533 110.243 38.36C110.169 38.16 110.049 37.9867 109.883 37.84C109.716 37.6933 109.493 37.58 109.213 37.5C108.939 37.42 108.603 37.38 108.203 37.38H106.013V40.75H108.193ZM106.013 33.07V36.25H107.963C108.256 36.25 108.526 36.21 108.773 36.13C109.026 36.0433 109.243 35.9267 109.423 35.78C109.603 35.6267 109.743 35.4467 109.843 35.24C109.943 35.0267 109.993 34.7933 109.993 34.54C109.993 34.3533 109.959 34.1733 109.893 34C109.826 33.82 109.713 33.6633 109.553 33.53C109.393 33.39 109.183 33.28 108.923 33.2C108.663 33.1133 108.343 33.07 107.963 33.07H106.013ZM108.013 31.87C108.639 31.87 109.176 31.9333 109.623 32.06C110.069 32.1867 110.436 32.36 110.723 32.58C111.009 32.7933 111.219 33.0467 111.353 33.34C111.486 33.6333 111.553 33.9467 111.553 34.28C111.553 34.5 111.523 34.73 111.463 34.97C111.403 35.21 111.296 35.44 111.143 35.66C110.996 35.88 110.793 36.08 110.533 36.26C110.279 36.4333 109.959 36.57 109.573 36.67C110.346 36.8033 110.943 37.0733 111.363 37.48C111.783 37.88 111.993 38.41 111.993 39.07C111.993 39.5633 111.893 39.9933 111.693 40.36C111.499 40.72 111.229 41.0233 110.883 41.27C110.543 41.5167 110.143 41.7 109.683 41.82C109.223 41.94 108.729 42 108.203 42H104.303V31.87H108.013ZM122.914 31.87V42H121.134V35.12C121.134 34.9867 121.141 34.8433 121.154 34.69C121.168 34.5367 121.184 34.3833 121.204 34.23C121.144 34.3633 121.084 34.4867 121.024 34.6C120.964 34.7133 120.901 34.8167 120.834 34.91L115.944 41.56C115.871 41.6667 115.778 41.77 115.664 41.87C115.558 41.9633 115.438 42.01 115.304 42.01H114.224V31.88H116.014V38.76C116.014 38.8867 116.008 39.0267 115.994 39.18C115.981 39.3267 115.964 39.4767 115.944 39.63C116.004 39.5033 116.064 39.3867 116.124 39.28C116.184 39.1667 116.244 39.0633 116.304 38.97L121.194 32.32C121.268 32.2133 121.361 32.1133 121.474 32.02C121.588 31.92 121.711 31.87 121.844 31.87H122.914ZM134.148 33.23H130.258V42H128.478V33.23H124.588V31.87H134.148V33.23ZM139.736 40.7C140.096 40.7 140.406 40.6567 140.666 40.57C140.932 40.4767 141.152 40.35 141.326 40.19C141.499 40.0233 141.629 39.83 141.716 39.61C141.802 39.39 141.846 39.15 141.846 38.89C141.846 38.65 141.809 38.4267 141.736 38.22C141.662 38.0067 141.539 37.82 141.366 37.66C141.199 37.5 140.979 37.3733 140.706 37.28C140.432 37.1867 140.099 37.14 139.706 37.14H137.556V40.7H139.736ZM139.706 35.84C140.406 35.84 140.992 35.9233 141.466 36.09C141.946 36.2567 142.329 36.48 142.616 36.76C142.909 37.04 143.119 37.3633 143.246 37.73C143.372 38.0967 143.436 38.4767 143.436 38.87C143.436 39.3233 143.356 39.7433 143.196 40.13C143.036 40.51 142.799 40.84 142.486 41.12C142.172 41.3933 141.786 41.61 141.326 41.77C140.866 41.9233 140.336 42 139.736 42H135.846V31.87H137.556V35.84H139.706ZM149.893 32.91C150.273 32.55 150.733 32.26 151.273 32.04C151.82 31.82 152.476 31.71 153.243 31.71C153.856 31.71 154.396 31.7867 154.863 31.94C155.33 32.0867 155.72 32.2833 156.033 32.53C156.353 32.7767 156.593 33.06 156.753 33.38C156.92 33.6933 157.003 34.02 157.003 34.36C157.003 34.56 156.97 34.77 156.903 34.99C156.843 35.21 156.74 35.42 156.593 35.62C156.446 35.82 156.256 36.0067 156.023 36.18C155.79 36.3533 155.5 36.4933 155.153 36.6C155.8 36.7933 156.306 37.1033 156.673 37.53C157.046 37.9567 157.233 38.48 157.233 39.1C157.233 39.5667 157.126 39.99 156.913 40.37C156.7 40.7433 156.413 41.0633 156.053 41.33C155.693 41.59 155.273 41.79 154.793 41.93C154.32 42.07 153.823 42.14 153.303 42.14C152.976 42.14 152.643 42.11 152.303 42.05C151.97 41.99 151.643 41.8967 151.323 41.77C151.003 41.6367 150.7 41.4733 150.413 41.28C150.133 41.0867 149.883 40.8533 149.663 40.58L150.163 39.93C150.243 39.8167 150.356 39.76 150.503 39.76C150.623 39.76 150.75 39.8133 150.883 39.92C151.023 40.02 151.193 40.1333 151.393 40.26C151.593 40.3867 151.836 40.5033 152.123 40.61C152.416 40.71 152.773 40.76 153.193 40.76C153.56 40.76 153.886 40.7167 154.173 40.63C154.466 40.5367 154.713 40.41 154.913 40.25C155.113 40.09 155.266 39.9 155.373 39.68C155.48 39.46 155.533 39.22 155.533 38.96C155.533 38.46 155.323 38.0567 154.903 37.75C154.49 37.4433 153.86 37.29 153.013 37.29H151.863V36.11H153.013C153.38 36.11 153.71 36.0733 154.003 36C154.296 35.92 154.546 35.8133 154.753 35.68C154.96 35.5467 155.116 35.3867 155.223 35.2C155.33 35.0067 155.383 34.8 155.383 34.58C155.383 34.38 155.336 34.19 155.243 34.01C155.156 33.83 155.02 33.6733 154.833 33.54C154.653 33.4067 154.426 33.3 154.153 33.22C153.88 33.14 153.56 33.1 153.193 33.1C152.793 33.1 152.453 33.14 152.173 33.22C151.9 33.3 151.666 33.3867 151.473 33.48C151.286 33.5733 151.133 33.66 151.013 33.74C150.893 33.82 150.79 33.86 150.703 33.86C150.616 33.86 150.543 33.8433 150.483 33.81C150.43 33.7767 150.37 33.7067 150.303 33.6L149.893 32.91ZM165.007 37.44C164.187 37.4667 163.487 37.5333 162.907 37.64C162.334 37.74 161.864 37.8733 161.497 38.04C161.137 38.2067 160.874 38.4033 160.707 38.63C160.547 38.8567 160.467 39.11 160.467 39.39C160.467 39.6567 160.511 39.8867 160.597 40.08C160.684 40.2733 160.801 40.4333 160.947 40.56C161.101 40.68 161.277 40.77 161.477 40.83C161.684 40.8833 161.904 40.91 162.137 40.91C162.451 40.91 162.737 40.88 162.997 40.82C163.257 40.7533 163.501 40.66 163.727 40.54C163.961 40.42 164.181 40.2767 164.387 40.11C164.601 39.9433 164.807 39.7533 165.007 39.54V37.44ZM159.257 33.3C159.817 32.76 160.421 32.3567 161.067 32.09C161.714 31.8233 162.431 31.69 163.217 31.69C163.784 31.69 164.287 31.7833 164.727 31.97C165.167 32.1567 165.537 32.4167 165.837 32.75C166.137 33.0833 166.364 33.4867 166.517 33.96C166.671 34.4333 166.747 34.9533 166.747 35.52V42H165.957C165.784 42 165.651 41.9733 165.557 41.92C165.464 41.86 165.391 41.7467 165.337 41.58L165.137 40.62C164.871 40.8667 164.611 41.0867 164.357 41.28C164.104 41.4667 163.837 41.6267 163.557 41.76C163.277 41.8867 162.977 41.9833 162.657 42.05C162.344 42.1233 161.994 42.16 161.607 42.16C161.214 42.16 160.844 42.1067 160.497 42C160.151 41.8867 159.847 41.72 159.587 41.5C159.334 41.28 159.131 41.0033 158.977 40.67C158.831 40.33 158.757 39.93 158.757 39.47C158.757 39.07 158.867 38.6867 159.087 38.32C159.307 37.9467 159.664 37.6167 160.157 37.33C160.651 37.0433 161.294 36.81 162.087 36.63C162.881 36.4433 163.854 36.3367 165.007 36.31V35.52C165.007 34.7333 164.837 34.14 164.497 33.74C164.157 33.3333 163.661 33.13 163.007 33.13C162.567 33.13 162.197 33.1867 161.897 33.3C161.604 33.4067 161.347 33.53 161.127 33.67C160.914 33.8033 160.727 33.9267 160.567 34.04C160.414 34.1467 160.261 34.2 160.107 34.2C159.987 34.2 159.884 34.17 159.797 34.11C159.711 34.0433 159.637 33.9633 159.577 33.87L159.257 33.3ZM174.789 36.6V33.07H173.089C172.709 33.07 172.389 33.1267 172.129 33.24C171.869 33.3467 171.659 33.4867 171.499 33.66C171.345 33.8267 171.235 34.0167 171.169 34.23C171.102 34.4367 171.069 34.6433 171.069 34.85C171.069 35.3967 171.269 35.8267 171.669 36.14C172.069 36.4467 172.615 36.6 173.309 36.6H174.789ZM176.489 31.87V42H174.789V37.73H174.009C173.822 37.73 173.665 37.7467 173.539 37.78C173.419 37.8067 173.312 37.8467 173.219 37.9C173.132 37.9533 173.055 38.0233 172.989 38.11C172.922 38.19 172.852 38.2833 172.779 38.39L170.559 41.38C170.445 41.5933 170.305 41.75 170.139 41.85C169.979 41.95 169.742 42 169.429 42H168.189L171.129 38.18C171.369 37.78 171.685 37.5133 172.079 37.38C171.565 37.3133 171.132 37.1933 170.779 37.02C170.425 36.8467 170.135 36.6433 169.909 36.41C169.689 36.17 169.529 35.9067 169.429 35.62C169.329 35.3333 169.279 35.0433 169.279 34.75C169.279 34.4033 169.345 34.0567 169.479 33.71C169.619 33.3633 169.839 33.0567 170.139 32.79C170.439 32.5167 170.825 32.2967 171.299 32.13C171.779 31.9567 172.359 31.87 173.039 31.87H176.489ZM183.212 40.75C183.879 40.75 184.405 40.5967 184.792 40.29C185.179 39.9767 185.372 39.55 185.372 39.01C185.372 38.77 185.335 38.5533 185.262 38.36C185.189 38.16 185.069 37.9867 184.902 37.84C184.735 37.6933 184.512 37.58 184.232 37.5C183.959 37.42 183.622 37.38 183.222 37.38H181.032V40.75H183.212ZM181.032 33.07V36.25H182.982C183.275 36.25 183.545 36.21 183.792 36.13C184.045 36.0433 184.262 35.9267 184.442 35.78C184.622 35.6267 184.762 35.4467 184.862 35.24C184.962 35.0267 185.012 34.7933 185.012 34.54C185.012 34.3533 184.979 34.1733 184.912 34C184.845 33.82 184.732 33.6633 184.572 33.53C184.412 33.39 184.202 33.28 183.942 33.2C183.682 33.1133 183.362 33.07 182.982 33.07H181.032ZM183.032 31.87C183.659 31.87 184.195 31.9333 184.642 32.06C185.089 32.1867 185.455 32.36 185.742 32.58C186.029 32.7933 186.239 33.0467 186.372 33.34C186.505 33.6333 186.572 33.9467 186.572 34.28C186.572 34.5 186.542 34.73 186.482 34.97C186.422 35.21 186.315 35.44 186.162 35.66C186.015 35.88 185.812 36.08 185.552 36.26C185.299 36.4333 184.979 36.57 184.592 36.67C185.365 36.8033 185.962 37.0733 186.382 37.48C186.802 37.88 187.012 38.41 187.012 39.07C187.012 39.5633 186.912 39.9933 186.712 40.36C186.519 40.72 186.249 41.0233 185.902 41.27C185.562 41.5167 185.162 41.7 184.702 41.82C184.242 41.94 183.749 42 183.222 42H179.322V31.87H183.032ZM195.394 32.37C195.487 32.2233 195.611 32.1033 195.764 32.01C195.917 31.9167 196.081 31.87 196.254 31.87H197.644L195.014 35.73C194.854 35.9767 194.687 36.18 194.514 36.34C194.341 36.4933 194.127 36.6133 193.874 36.7C194.194 36.7867 194.464 36.9233 194.684 37.11C194.904 37.29 195.101 37.5233 195.274 37.81L197.934 42H196.694C196.374 42 196.127 41.9467 195.954 41.84C195.781 41.7333 195.631 41.58 195.504 41.38L193.534 38.23C193.221 37.71 192.751 37.45 192.124 37.45H191.034V42.01H189.244V31.87H191.034V36.25H191.994C192.527 36.25 192.944 36.0233 193.244 35.57L195.394 32.37ZM208.336 31.87L202.686 44.99C202.626 45.1233 202.549 45.23 202.456 45.31C202.369 45.39 202.232 45.43 202.046 45.43H200.726L202.576 41.41L198.396 31.87H199.936C200.089 31.87 200.209 31.91 200.296 31.99C200.389 32.0633 200.452 32.1467 200.486 32.24L203.196 38.62C203.302 38.9 203.392 39.1933 203.466 39.5C203.559 39.1867 203.659 38.89 203.766 38.61L206.396 32.24C206.436 32.1333 206.502 32.0467 206.596 31.98C206.696 31.9067 206.806 31.87 206.926 31.87H208.336Z" fill="white"/>
<defs>
<linearGradient id="paint0_linear_337_663" x1="125.5" y1="0" x2="125.5" y2="68" gradientUnits="userSpaceOnUse">
<stop stop-color="#FF946D"/>
<stop offset="1" stop-color="#FF7D68"/>
</linearGradient>
</defs>
</svg>
