<svg width="51" height="52" viewBox="0 0 51 52" fill="none" xmlns="http://www.w3.org/2000/svg">
<rect y="0.315674" width="50.2982" height="51.3684" rx="13" fill="#F15A2B"/>
<path d="M35.1214 34.485C34.6397 34.4949 34.1665 34.357 33.7653 34.09C33.4668 33.895 33.1179 33.7911 32.7612 33.7911C32.4046 33.7911 32.0557 33.895 31.7571 34.09C31.3519 34.348 30.8816 34.485 30.4012 34.485C29.9209 34.485 29.4505 34.348 29.0454 34.09C28.7468 33.8948 28.3978 33.7908 28.0411 33.7908C27.6843 33.7908 27.3353 33.8948 27.0368 34.09C26.6316 34.348 26.1612 34.485 25.6809 34.485C25.2006 34.485 24.7302 34.348 24.325 34.09C24.0267 33.8949 23.6779 33.7909 23.3214 33.7909C22.9649 33.7909 22.6162 33.8949 22.3178 34.09C21.9505 34.3342 21.5217 34.4699 21.0808 34.4816L21.0565 33.7874C21.3822 33.7797 21.6985 33.6766 21.9662 33.491C22.3713 33.2331 22.8416 33.0961 23.3218 33.0961C23.802 33.0961 24.2722 33.2331 24.6773 33.491C24.9758 33.6861 25.3248 33.7901 25.6814 33.7901C26.0381 33.7901 26.387 33.6861 26.6855 33.491C27.0908 33.2328 27.5613 33.0957 28.0418 33.0957C28.5222 33.0957 28.9927 33.2328 29.398 33.491C29.6965 33.6861 30.0454 33.7901 30.4021 33.7901C30.7588 33.7901 31.1077 33.6861 31.4062 33.491C31.8114 33.2331 32.2818 33.0961 32.7621 33.0961C33.2424 33.0961 33.7128 33.2331 34.118 33.491C34.4172 33.6866 34.767 33.7908 35.1245 33.7908C35.482 33.7908 35.8318 33.6866 36.1311 33.491C36.5317 33.2248 37.0041 33.0872 37.485 33.0967V33.7909C37.127 33.7811 36.7751 33.8857 36.4806 34.0897C36.0785 34.3571 35.6042 34.495 35.1214 34.485Z" fill="white"/>
<path d="M16.2435 34.4849C15.7619 34.4948 15.2888 34.357 14.8878 34.0899C14.5934 33.8858 14.2415 33.781 13.8834 33.7907V33.0965C14.3651 33.0865 14.8384 33.2244 15.2394 33.4915C15.5337 33.6957 15.8855 33.8005 16.2435 33.7907C16.6017 33.8005 16.9537 33.6956 17.248 33.4912C17.6482 33.2242 18.1207 33.0864 18.6016 33.0965C19.0709 33.086 19.5325 33.2175 19.9257 33.4738L19.5755 34.0729C19.2883 33.8796 18.9477 33.7809 18.6016 33.7907C18.2449 33.7811 17.8944 33.8857 17.6013 34.0892C17.1999 34.357 16.726 34.4952 16.2435 34.4849Z" fill="white"/>
<path d="M35.1225 32.0549C34.6404 32.0647 34.1669 31.9269 33.7654 31.6599C33.4666 31.4646 33.1173 31.3606 32.7604 31.3606C32.4034 31.3606 32.0542 31.4646 31.7554 31.6599C31.3503 31.9178 30.88 32.0548 30.3997 32.0548C29.9194 32.0548 29.4491 31.9178 29.044 31.6599C28.7456 31.4648 28.3968 31.3608 28.0402 31.3608C27.6837 31.3608 27.3349 31.4648 27.0365 31.6599C26.6313 31.9179 26.161 32.0549 25.6807 32.0549C25.2005 32.0549 24.7302 31.9179 24.325 31.6599C24.0266 31.4648 23.6778 31.3608 23.3213 31.3608C22.9647 31.3608 22.6159 31.4648 22.3175 31.6599C21.9166 31.927 21.4434 32.0649 20.9618 32.0549C20.4801 32.0649 20.007 31.927 19.6061 31.6599C19.3119 31.4558 18.9602 31.3509 18.6023 31.3607C18.2445 31.351 17.893 31.4558 17.5989 31.6599C17.1986 31.9267 16.7262 32.0646 16.2453 32.0549C15.7635 32.0649 15.2902 31.927 14.8892 31.6599C14.5945 31.4554 14.242 31.3505 13.8834 31.3607V30.6665C14.365 30.6566 14.8381 30.7944 15.2391 31.0615C15.5335 31.2656 15.8854 31.3705 16.2435 31.3607C16.6013 31.3704 16.9529 31.2656 17.247 31.0615C17.6472 30.7947 18.1196 30.6569 18.6006 30.6665C19.0826 30.6563 19.5561 30.7942 19.9573 31.0615C20.2516 31.2657 20.6034 31.3705 20.9614 31.3607C21.3195 31.3705 21.6713 31.2657 21.9656 31.0615C22.3707 30.8035 22.841 30.6665 23.3213 30.6665C23.8016 30.6665 24.2719 30.8035 24.677 31.0615C24.9754 31.2567 25.3243 31.3606 25.6809 31.3606C26.0375 31.3606 26.3864 31.2567 26.6849 31.0615C27.09 30.8035 27.5603 30.6665 28.0406 30.6665C28.5209 30.6665 28.9912 30.8035 29.3963 31.0615C29.6947 31.2567 30.0436 31.3606 30.4002 31.3606C30.7568 31.3606 31.1057 31.2567 31.4042 31.0615C31.8097 30.8036 32.2803 30.6666 32.7609 30.6666C33.2415 30.6666 33.7121 30.8036 34.1177 31.0615C34.4167 31.2566 34.766 31.3605 35.123 31.3605C35.48 31.3605 35.8293 31.2566 36.1283 31.0615C36.5297 30.7946 37.0031 30.6568 37.4851 30.6665V31.3607C37.1262 31.3506 36.7736 31.4554 36.4785 31.6599C36.0773 31.9267 35.6042 32.0645 35.1225 32.0549Z" fill="white"/>
<path d="M35.1214 29.6256C34.6397 29.6355 34.1665 29.4977 33.7654 29.2307C33.4709 29.0265 33.119 28.9217 32.7609 28.9315C32.4981 28.9225 32.2371 28.9785 32.0011 29.0946L31.695 28.4699C32.0264 28.3075 32.392 28.2273 32.7609 28.2363C33.2432 28.2264 33.717 28.3647 34.1183 28.6323C34.4176 28.8279 34.7674 28.9321 35.1249 28.9321C35.4824 28.9321 35.8322 28.8279 36.1314 28.6323C36.5319 28.3659 37.0042 28.2281 37.4851 28.2373V28.9315C37.127 28.9217 36.7751 29.0264 36.4806 29.2303C36.0785 29.4977 35.6042 29.6357 35.1214 29.6256Z" fill="white"/>
<path d="M30.3976 29.6257C29.9167 29.6358 29.4442 29.498 29.044 29.231C28.7454 29.0358 28.3964 28.9318 28.0397 28.9318C27.683 28.9318 27.334 29.0358 27.0354 29.231C26.6302 29.489 26.1599 29.626 25.6795 29.626C25.1992 29.626 24.7288 29.489 24.3236 29.231C24.0251 29.0359 23.6762 28.9319 23.3195 28.9319C22.9629 28.9319 22.6139 29.0359 22.3154 29.231C21.9146 29.4977 21.4418 29.6354 20.9604 29.6257C20.4788 29.6356 20.0056 29.4978 19.6047 29.2307C19.3103 29.0266 18.9584 28.9218 18.6002 28.9315C18.2435 28.9219 17.8931 29.0265 17.5999 29.23C17.1989 29.4976 16.7255 29.6357 16.2435 29.6257C15.7619 29.6356 15.2888 29.4978 14.8878 29.2307C14.5934 29.0266 14.2415 28.9218 13.8834 28.9315V28.2373C14.3651 28.2273 14.8384 28.3652 15.2394 28.6323C15.5337 28.8365 15.8855 28.9413 16.2435 28.9315C16.6017 28.9413 16.9537 28.8364 17.248 28.632C17.6482 28.365 18.1207 28.2272 18.6016 28.2373C19.0833 28.2274 19.5564 28.3652 19.9573 28.6323C20.2516 28.8365 20.6034 28.9413 20.9614 28.9315C21.3196 28.9412 21.6715 28.8364 21.9659 28.6323C22.3711 28.3744 22.8415 28.2373 23.3218 28.2373C23.8021 28.2373 24.2725 28.3744 24.6777 28.6323C24.9762 28.8275 25.3251 28.9314 25.6818 28.9314C26.0384 28.9314 26.3874 28.8275 26.6859 28.6323C27.0911 28.3742 27.5616 28.237 28.0421 28.237C28.5226 28.237 28.9931 28.3742 29.3984 28.6323C29.7041 28.838 30.0668 28.9425 30.4351 28.9312C30.4619 28.9315 30.4887 28.9301 30.5153 28.927L30.6076 29.6149C30.5379 29.623 30.4678 29.6266 30.3976 29.6257Z" fill="white"/>
<path d="M35.1225 27.1958C34.6404 27.2056 34.1669 27.0678 33.7654 26.8008C33.4666 26.6055 33.1173 26.5015 32.7604 26.5015C32.4034 26.5015 32.0542 26.6055 31.7554 26.8008C31.3503 27.0587 30.88 27.1956 30.3997 27.1956C29.9194 27.1956 29.4491 27.0587 29.044 26.8008C28.7456 26.6056 28.3968 26.5017 28.0402 26.5017C27.6837 26.5017 27.3349 26.6056 27.0365 26.8008C26.6313 27.0587 26.161 27.1958 25.6807 27.1958C25.2005 27.1958 24.7302 27.0587 24.325 26.8008C24.0266 26.6056 23.6778 26.5017 23.3213 26.5017C22.9647 26.5017 22.6159 26.6056 22.3175 26.8008C21.9166 27.0679 21.4434 27.2058 20.9618 27.1958C20.4801 27.2058 20.007 27.0679 19.6061 26.8008C19.3119 26.5966 18.9602 26.4918 18.6023 26.5016C18.2445 26.4919 17.893 26.5967 17.5989 26.8008C17.1986 27.0676 16.7262 27.2054 16.2453 27.1958C15.7635 27.2058 15.2902 27.0679 14.8892 26.8008C14.5945 26.5962 14.242 26.4914 13.8834 26.5016V25.8074C14.365 25.7975 14.8381 25.9353 15.2391 26.2024C15.5335 26.4065 15.8854 26.5113 16.2435 26.5016C16.6013 26.5113 16.9529 26.4065 17.247 26.2024C17.6472 25.9356 18.1196 25.7977 18.6006 25.8074C19.0826 25.7972 19.5561 25.935 19.9573 26.2024C20.2516 26.4066 20.6034 26.5114 20.9614 26.5016C21.3195 26.5114 21.6713 26.4066 21.9656 26.2024C22.3707 25.9444 22.841 25.8073 23.3213 25.8073C23.8016 25.8073 24.2719 25.9444 24.677 26.2024C24.9754 26.3976 25.3243 26.5015 25.6809 26.5015C26.0375 26.5015 26.3864 26.3976 26.6849 26.2024C27.09 25.9444 27.5603 25.8073 28.0406 25.8073C28.5209 25.8073 28.9912 25.9444 29.3963 26.2024C29.6947 26.3976 30.0436 26.5015 30.4002 26.5015C30.7568 26.5015 31.1057 26.3976 31.4042 26.2024C31.8097 25.9445 32.2803 25.8075 32.7609 25.8075C33.2415 25.8075 33.7121 25.9445 34.1177 26.2024C34.4167 26.3975 34.766 26.5014 35.123 26.5014C35.48 26.5014 35.8293 26.3975 36.1283 26.2024C36.5297 25.9355 37.0031 25.7976 37.4851 25.8074V26.5016C37.1262 26.4914 36.7736 26.5963 36.4785 26.8008C36.0773 27.0676 35.6042 27.2054 35.1225 27.1958Z" fill="white"/>
<path d="M30.1765 26.9013L29.5216 26.6716C29.6902 26.1869 29.7592 25.6732 29.7241 25.1612C29.6891 24.6493 29.5509 24.1497 29.3178 23.6926L26.9337 19.0239C26.9102 18.9778 26.8972 18.927 26.8959 18.8753C26.8945 18.8235 26.9047 18.7721 26.9258 18.7249C26.9468 18.6776 26.9782 18.6356 27.0176 18.602C27.057 18.5684 27.1034 18.5441 27.1534 18.5307L31.9046 17.2639C32.0595 17.2234 32.192 17.1234 32.2735 16.9856C32.355 16.8479 32.3788 16.6836 32.3397 16.5284C32.3007 16.3732 32.2019 16.2397 32.0649 16.1569C31.9279 16.0742 31.7638 16.0489 31.6082 16.0866L25.8577 17.461C25.7348 17.4901 25.6202 17.547 25.5228 17.6275C25.4255 17.7079 25.3479 17.8097 25.2962 17.925C25.2445 18.0402 25.22 18.1658 25.2246 18.292C25.2292 18.4183 25.2629 18.5418 25.3229 18.6529L27.0305 21.8252C27.0739 21.9059 27.0836 22.0003 27.0576 22.0881C27.0316 22.1759 26.9719 22.2498 26.8917 22.2938L24.6877 23.5086L24.3528 22.9005L26.2555 21.8516L24.7124 18.9819C24.602 18.7771 24.5402 18.5496 24.5318 18.317C24.5233 18.0845 24.5685 17.8531 24.6638 17.6408C24.7591 17.4285 24.9019 17.2409 25.0813 17.0926C25.2606 16.9443 25.4716 16.8393 25.6981 16.7856L31.4458 15.4115C31.7804 15.3269 32.1349 15.3788 32.4313 15.5556C32.7277 15.7324 32.9417 16.0197 33.0262 16.3543C33.1108 16.6889 33.059 17.0434 32.8821 17.3398C32.7053 17.6362 32.418 17.8502 32.0834 17.9348L27.7469 19.0906L29.9363 23.3764C30.212 23.9174 30.3754 24.5085 30.4167 25.1143C30.458 25.7201 30.3763 26.328 30.1765 26.9013Z" fill="white"/>
<path d="M23.1397 23.5748L18.9218 25.8989L19.2567 26.5066L23.4745 24.1825L23.1397 23.5748Z" fill="white"/>
<path d="M33.32 24.5927C32.8052 24.5927 32.3019 24.4401 31.8738 24.154C31.4457 23.868 31.1121 23.4614 30.9151 22.9858C30.718 22.5101 30.6665 21.9867 30.7669 21.4818C30.8674 20.9768 31.1153 20.513 31.4794 20.1489C31.8434 19.7849 32.3072 19.5369 32.8122 19.4365C33.3172 19.3361 33.8406 19.3876 34.3162 19.5846C34.7919 19.7817 35.1984 20.1153 35.4845 20.5434C35.7705 20.9715 35.9232 21.4748 35.9232 21.9896C35.9224 22.6798 35.6479 23.3415 35.1599 23.8295C34.6719 24.3175 34.0102 24.592 33.32 24.5927ZM33.32 20.0806C32.9425 20.0806 32.5734 20.1926 32.2595 20.4024C31.9456 20.6121 31.7009 20.9103 31.5564 21.2591C31.4119 21.6079 31.3741 21.9917 31.4478 22.362C31.5214 22.7323 31.7032 23.0725 31.9702 23.3394C32.2372 23.6064 32.5773 23.7882 32.9476 23.8619C33.3179 23.9355 33.7018 23.8977 34.0506 23.7533C34.3994 23.6088 34.6975 23.3641 34.9073 23.0502C35.117 22.7362 35.229 22.3672 35.229 21.9896C35.2284 21.4835 35.027 20.9983 34.6692 20.6405C34.3113 20.2826 33.8261 20.0813 33.32 20.0806Z" fill="white"/>
</svg>
